<svg xmlns="http://www.w3.org/2000/svg" version="1.1" xmlns:xlink="http://www.w3.org/1999/xlink" xmlns:svgjs="http://svgjs.dev/svgjs" width="1000" height="1125" viewBox="0 0 1000 1125"><g transform="matrix(1,0,0,1,0.0017206729432928114,0)"><svg viewBox="0 0 320 360" data-background-color="#aaaaaa" preserveAspectRatio="xMidYMid meet" height="1125" width="1000" xmlns="http://www.w3.org/2000/svg" xmlns:xlink="http://www.w3.org/1999/xlink"><g id="tight-bounds" transform="matrix(1,0,0,1,-0.00018180653307808825,0)"><svg viewBox="0 0 320 360" height="360" width="320"><rect width="320.0003662109375" height="360" fill="url(#4b39a466-e225-45fe-885d-52c9dc070123)" mask="url(#680e5c1e-208e-4b9e-b0f9-31e67df1ae37)" data-fill-palette-color="tertiary"></rect><g><svg></svg></g><g><svg viewBox="0 0 320 360" height="360" width="320"><g><path xmlns="http://www.w3.org/2000/svg" d="M294.684 112.125c-8.775-10.699-25.381-16.201-43-22.006-7.56-2.498-15.357-5.097-22.985-8.235-7.695-3.173-15.256-7.257-22.613-11.172-14.952-8.033-30.41-16.336-46.105-16.336-15.661 0-31.119 8.303-46.071 16.336-7.358 3.949-14.952 8.033-22.648 11.205-7.594 3.139-15.425 5.704-22.985 8.236-17.618 5.839-34.224 11.341-42.999 22.006-11.712 14.277-11.442 35.439-11.172 57.817 0.034 3.375 0.068 6.717 0.067 10.024 0 3.308-0.034 6.649-0.101 10.024-0.27 22.411-0.54 43.54 11.172 57.851 8.775 10.666 25.381 16.167 42.966 22.006 7.56 2.498 15.357 5.097 23.019 8.235 7.695 3.173 15.256 7.223 22.579 11.172 14.986 8.067 30.444 16.37 46.105 16.37 15.695 0 31.153-8.303 46.105-16.336 7.358-3.949 14.918-8.033 22.614-11.172 7.594-3.139 15.357-5.704 22.884-8.202 17.72-5.873 34.326-11.374 43.101-22.039 11.712-14.277 11.442-35.439 11.171-57.817-0.034-3.409-0.101-6.75-0.101-10.058 0-3.308 0.034-6.649 0.101-9.991 0.371-22.479 0.641-43.641-11.104-57.918zM305.552 103.215c-15.728-19.171-45.801-23.727-71.486-34.326-22.985-9.45-46.375-28.588-74.051-28.587-27.676 0-51.066 19.137-74.052 28.587-25.719 10.598-55.758 15.155-71.486 34.326-17.078 20.791-14.311 50.121-14.311 76.785 0 26.63-2.768 55.994 14.277 76.785 15.728 19.171 45.801 23.727 71.487 34.326 22.985 9.484 46.375 28.588 74.051 28.587 27.676 0 51.066-19.103 74.051-28.587 25.719-10.598 55.758-15.155 71.486-34.326 17.045-20.791 14.277-50.121 14.277-76.785 0.068-26.664 2.835-55.994-14.243-76.785zM309.872 189.923c0.304 23.221 0.574 45.059-12.083 60.483-9.518 11.577-26.664 17.281-44.822 23.289-7.56 2.498-15.29 5.063-22.715 8.134-7.493 3.071-14.952 7.088-22.175 10.969-15.458 8.303-31.355 16.842-48.062 16.842-16.707 0-32.604-8.539-47.995-16.808-7.257-3.915-14.75-7.932-22.243-11.003-7.527-3.105-15.256-5.67-22.748-8.134-18.192-6.008-35.338-11.712-44.823-23.289-12.623-15.391-12.353-37.262-12.083-60.415 0.034-3.375 0.101-6.683 0.101-9.991 0-3.308-0.034-6.615-0.067-9.991-0.304-23.154-0.574-45.025 12.083-60.415 9.518-11.577 26.664-17.247 44.822-23.289 7.527-2.498 15.256-5.063 22.749-8.134 7.493-3.105 14.986-7.122 22.242-11.003 15.391-8.269 31.322-16.842 47.995-16.842 16.673 0 32.604 8.539 47.995 16.808 7.257 3.915 14.75 7.932 22.243 11.003 7.493 3.105 15.256 5.637 22.715 8.134 18.158 6.008 35.338 11.712 44.822 23.289 12.657 15.425 12.387 37.262 12.083 60.416-0.034 3.409-0.101 6.717-0.101 9.99 0 3.308 0.034 6.615 0.067 9.957z" fill="url(#4b39a466-e225-45fe-885d-52c9dc070123)" fill-rule="nonzero" stroke="none" stroke-width="1" stroke-linecap="butt" stroke-linejoin="miter" stroke-miterlimit="10" stroke-dasharray="" stroke-dashoffset="0" font-family="none" font-weight="none" font-size="none" text-anchor="none" style="mix-blend-mode: normal" data-fill-palette-color="tertiary"></path></g><g transform="matrix(1,0,0,1,64,144.6078799249531)"><svg viewBox="0 0 192 70.78424015009381" height="70.78424015009381" width="192"><g><svg viewBox="0 0 192 70.78424015009381" height="70.78424015009381" width="192"><g><svg viewBox="0 0 192 70.78424015009381" height="70.78424015009381" width="192"><g><svg viewBox="0 0 192 70.78424015009381" height="70.78424015009381" width="192"><g id="textblocktransform"><svg viewBox="0 0 192 70.78424015009381" height="70.78424015009381" width="192" id="textblock"><g><svg viewBox="0 0 192 70.78424015009381" height="70.78424015009381" width="192"><g transform="matrix(1,0,0,1,0,0)"><svg width="192" viewBox="-1.9500000476837158 -37.29999923706055 107.5999984741211 40.29999923706055" height="70.78424015009381" data-palette-color="url(#3b70027b-96da-42ae-942d-f526abd42bf3)"></svg></g></svg></g></svg></g></svg></g></svg></g></svg></g></svg></g></svg></g><defs></defs><mask id="680e5c1e-208e-4b9e-b0f9-31e67df1ae37"><g id="SvgjsG4441"><svg viewBox="0 0 320 360" height="360" width="320"><g><svg></svg></g><g><svg viewBox="0 0 320 360" height="360" width="320"><g><path xmlns="http://www.w3.org/2000/svg" d="M294.684 112.125c-8.775-10.699-25.381-16.201-43-22.006-7.56-2.498-15.357-5.097-22.985-8.235-7.695-3.173-15.256-7.257-22.613-11.172-14.952-8.033-30.41-16.336-46.105-16.336-15.661 0-31.119 8.303-46.071 16.336-7.358 3.949-14.952 8.033-22.648 11.205-7.594 3.139-15.425 5.704-22.985 8.236-17.618 5.839-34.224 11.341-42.999 22.006-11.712 14.277-11.442 35.439-11.172 57.817 0.034 3.375 0.068 6.717 0.067 10.024 0 3.308-0.034 6.649-0.101 10.024-0.27 22.411-0.54 43.54 11.172 57.851 8.775 10.666 25.381 16.167 42.966 22.006 7.56 2.498 15.357 5.097 23.019 8.235 7.695 3.173 15.256 7.223 22.579 11.172 14.986 8.067 30.444 16.37 46.105 16.37 15.695 0 31.153-8.303 46.105-16.336 7.358-3.949 14.918-8.033 22.614-11.172 7.594-3.139 15.357-5.704 22.884-8.202 17.72-5.873 34.326-11.374 43.101-22.039 11.712-14.277 11.442-35.439 11.171-57.817-0.034-3.409-0.101-6.75-0.101-10.058 0-3.308 0.034-6.649 0.101-9.991 0.371-22.479 0.641-43.641-11.104-57.918zM305.552 103.215c-15.728-19.171-45.801-23.727-71.486-34.326-22.985-9.45-46.375-28.588-74.051-28.587-27.676 0-51.066 19.137-74.052 28.587-25.719 10.598-55.758 15.155-71.486 34.326-17.078 20.791-14.311 50.121-14.311 76.785 0 26.63-2.768 55.994 14.277 76.785 15.728 19.171 45.801 23.727 71.487 34.326 22.985 9.484 46.375 28.588 74.051 28.587 27.676 0 51.066-19.103 74.051-28.587 25.719-10.598 55.758-15.155 71.486-34.326 17.045-20.791 14.277-50.121 14.277-76.785 0.068-26.664 2.835-55.994-14.243-76.785zM309.872 189.923c0.304 23.221 0.574 45.059-12.083 60.483-9.518 11.577-26.664 17.281-44.822 23.289-7.56 2.498-15.29 5.063-22.715 8.134-7.493 3.071-14.952 7.088-22.175 10.969-15.458 8.303-31.355 16.842-48.062 16.842-16.707 0-32.604-8.539-47.995-16.808-7.257-3.915-14.75-7.932-22.243-11.003-7.527-3.105-15.256-5.67-22.748-8.134-18.192-6.008-35.338-11.712-44.823-23.289-12.623-15.391-12.353-37.262-12.083-60.415 0.034-3.375 0.101-6.683 0.101-9.991 0-3.308-0.034-6.615-0.067-9.991-0.304-23.154-0.574-45.025 12.083-60.415 9.518-11.577 26.664-17.247 44.822-23.289 7.527-2.498 15.256-5.063 22.749-8.134 7.493-3.105 14.986-7.122 22.242-11.003 15.391-8.269 31.322-16.842 47.995-16.842 16.673 0 32.604 8.539 47.995 16.808 7.257 3.915 14.75 7.932 22.243 11.003 7.493 3.105 15.256 5.637 22.715 8.134 18.158 6.008 35.338 11.712 44.822 23.289 12.657 15.425 12.387 37.262 12.083 60.416-0.034 3.409-0.101 6.717-0.101 9.99 0 3.308 0.034 6.615 0.067 9.957z" fill="white" fill-rule="nonzero" stroke="none" stroke-width="1" stroke-linecap="butt" stroke-linejoin="miter" stroke-miterlimit="10" stroke-dasharray="" stroke-dashoffset="0" font-family="none" font-weight="none" font-size="none" text-anchor="none" style="mix-blend-mode: normal"></path></g><g transform="matrix(1,0,0,1,64,144.6078799249531)"><svg viewBox="0 0 192 70.78424015009381" height="70.78424015009381" width="192"><g><svg viewBox="0 0 192 70.78424015009381" height="70.78424015009381" width="192"><g><svg viewBox="0 0 192 70.78424015009381" height="70.78424015009381" width="192"><g><svg viewBox="0 0 192 70.78424015009381" height="70.78424015009381" width="192"><g id="SvgjsG4440"><svg viewBox="0 0 192 70.78424015009381" height="70.78424015009381" width="192" id="SvgjsSvg4439"><g><svg viewBox="0 0 192 70.78424015009381" height="70.78424015009381" width="192"><g transform="matrix(1,0,0,1,0,0)"><svg width="192" viewBox="-1.9500000476837158 -37.29999923706055 107.5999984741211 40.29999923706055" height="70.78424015009381" data-palette-color="url(#3b70027b-96da-42ae-942d-f526abd42bf3)"></svg></g></svg></g></svg></g></svg></g></svg></g></svg></g></svg></g></svg></g><defs></defs></svg></g></mask><linearGradient x1="0.054" x2="0.941" y1="0.5" y2="0.5" id="4b39a466-e225-45fe-885d-52c9dc070123"><stop stop-color="#0f3054" offset="0"></stop><stop stop-color="#3b8dcb" offset="0.498"></stop><stop stop-color="#0f3054" offset="1"></stop></linearGradient><mask id="b7dae218-fd6e-4e22-9e42-f23fdf86ffd0"><g id="SvgjsG4448"><svg viewBox="0 0 320 360" height="360" width="320"><g><svg></svg></g><g><svg viewBox="0 0 320 360" height="360" width="320"><g><path xmlns="http://www.w3.org/2000/svg" d="M294.684 112.125c-8.775-10.699-25.381-16.201-43-22.006-7.56-2.498-15.357-5.097-22.985-8.235-7.695-3.173-15.256-7.257-22.613-11.172-14.952-8.033-30.41-16.336-46.105-16.336-15.661 0-31.119 8.303-46.071 16.336-7.358 3.949-14.952 8.033-22.648 11.205-7.594 3.139-15.425 5.704-22.985 8.236-17.618 5.839-34.224 11.341-42.999 22.006-11.712 14.277-11.442 35.439-11.172 57.817 0.034 3.375 0.068 6.717 0.067 10.024 0 3.308-0.034 6.649-0.101 10.024-0.27 22.411-0.54 43.54 11.172 57.851 8.775 10.666 25.381 16.167 42.966 22.006 7.56 2.498 15.357 5.097 23.019 8.235 7.695 3.173 15.256 7.223 22.579 11.172 14.986 8.067 30.444 16.37 46.105 16.37 15.695 0 31.153-8.303 46.105-16.336 7.358-3.949 14.918-8.033 22.614-11.172 7.594-3.139 15.357-5.704 22.884-8.202 17.72-5.873 34.326-11.374 43.101-22.039 11.712-14.277 11.442-35.439 11.171-57.817-0.034-3.409-0.101-6.75-0.101-10.058 0-3.308 0.034-6.649 0.101-9.991 0.371-22.479 0.641-43.641-11.104-57.918zM305.552 103.215c-15.728-19.171-45.801-23.727-71.486-34.326-22.985-9.45-46.375-28.588-74.051-28.587-27.676 0-51.066 19.137-74.052 28.587-25.719 10.598-55.758 15.155-71.486 34.326-17.078 20.791-14.311 50.121-14.311 76.785 0 26.63-2.768 55.994 14.277 76.785 15.728 19.171 45.801 23.727 71.487 34.326 22.985 9.484 46.375 28.588 74.051 28.587 27.676 0 51.066-19.103 74.051-28.587 25.719-10.598 55.758-15.155 71.486-34.326 17.045-20.791 14.277-50.121 14.277-76.785 0.068-26.664 2.835-55.994-14.243-76.785zM309.872 189.923c0.304 23.221 0.574 45.059-12.083 60.483-9.518 11.577-26.664 17.281-44.822 23.289-7.56 2.498-15.29 5.063-22.715 8.134-7.493 3.071-14.952 7.088-22.175 10.969-15.458 8.303-31.355 16.842-48.062 16.842-16.707 0-32.604-8.539-47.995-16.808-7.257-3.915-14.75-7.932-22.243-11.003-7.527-3.105-15.256-5.67-22.748-8.134-18.192-6.008-35.338-11.712-44.823-23.289-12.623-15.391-12.353-37.262-12.083-60.415 0.034-3.375 0.101-6.683 0.101-9.991 0-3.308-0.034-6.615-0.067-9.991-0.304-23.154-0.574-45.025 12.083-60.415 9.518-11.577 26.664-17.247 44.822-23.289 7.527-2.498 15.256-5.063 22.749-8.134 7.493-3.105 14.986-7.122 22.242-11.003 15.391-8.269 31.322-16.842 47.995-16.842 16.673 0 32.604 8.539 47.995 16.808 7.257 3.915 14.75 7.932 22.243 11.003 7.493 3.105 15.256 5.637 22.715 8.134 18.158 6.008 35.338 11.712 44.822 23.289 12.657 15.425 12.387 37.262 12.083 60.416-0.034 3.409-0.101 6.717-0.101 9.99 0 3.308 0.034 6.615 0.067 9.957z" fill="black" fill-rule="nonzero" stroke="none" stroke-width="1" stroke-linecap="butt" stroke-linejoin="miter" stroke-miterlimit="10" stroke-dasharray="" stroke-dashoffset="0" font-family="none" font-weight="none" font-size="none" text-anchor="none" style="mix-blend-mode: normal"></path></g><g transform="matrix(1,0,0,1,64,144.6078799249531)"><svg viewBox="0 0 192 70.78424015009381" height="70.78424015009381" width="192"><g><svg viewBox="0 0 192 70.78424015009381" height="70.78424015009381" width="192"><g><svg viewBox="0 0 192 70.78424015009381" height="70.78424015009381" width="192"><g><svg viewBox="0 0 192 70.78424015009381" height="70.78424015009381" width="192"><g id="SvgjsG4447"><svg viewBox="0 0 192 70.78424015009381" height="70.78424015009381" width="192" id="SvgjsSvg4446"><g><svg viewBox="0 0 192 70.78424015009381" height="70.78424015009381" width="192"><g transform="matrix(1,0,0,1,0,0)"><svg width="192" viewBox="-1.9500000476837158 -37.29999923706055 107.5999984741211 40.29999923706055" height="70.78424015009381" data-palette-color="url(#3b70027b-96da-42ae-942d-f526abd42bf3)"><path d="M1.05 0L1.05-2.75 20.65-29.55 2.35-29.55 2.35-34.3 28.95-34.3 28.95-31.55 9.35-4.75 29.4-4.75 29.4 0 1.05 0ZM34.3 0L34.3-34.3 51.8-34.3Q54.6-34.3 56.77-33.25 58.95-32.2 60.17-30.28 61.4-28.35 61.4-25.85L61.4-25.85Q61.4-23 59.82-20.9 58.25-18.8 55.7-18L55.7-18 55.7-17.8Q58.7-17.15 60.52-14.93 62.35-12.7 62.35-9.25L62.35-9.25Q62.35-4.65 59.45-2.33 56.55 0 51.8 0L51.8 0 34.3 0ZM39.85-19.95L50.55-19.95Q52.9-19.95 54.32-21.28 55.75-22.6 55.75-24.75L55.75-24.75Q55.75-27.15 54.45-28.35 53.15-29.55 50.9-29.55L50.9-29.55 39.85-29.55 39.85-19.95ZM39.85-4.75L51.4-4.75Q53.9-4.75 55.3-6 56.7-7.25 56.7-9.9L56.7-9.9Q56.7-12.5 55.25-13.85 53.8-15.2 51-15.2L51-15.2 39.85-15.2 39.85-4.75ZM68.5 0L68.5-34.3 76.84-34.3 84.05-12.3Q84.7-10.25 85.59-6.35L85.59-6.35 85.8-6.35Q86.7-10.55 87.3-12.3L87.3-12.3 94.45-34.3 102.65-34.3 102.65 0 97.09 0 97.09-22.4 97.3-28.55 96.95-28.55Q96.45-26.3 96.05-25L96.05-25 87.8 0 82.95 0 74.8-25Q74.55-25.75 74.09-27.55L74.09-27.55 73.84-28.55 73.59-28.55 73.75-22.4 73.75 0 68.5 0Z" opacity="1" transform="matrix(1,0,0,1,0,0)" fill="white" class="wordmark-text-0" id="SvgjsPath4445"></path></svg></g></svg></g></svg></g></svg></g></svg></g></svg></g></svg></g></svg></g><defs></defs><mask><g id="SvgjsG4444"><svg viewBox="0 0 320 360" height="360" width="320"><g><svg></svg></g><g><svg viewBox="0 0 320 360" height="360" width="320"><g></g><g transform="matrix(1,0,0,1,64,144.6078799249531)"><svg viewBox="0 0 192 70.78424015009381" height="70.78424015009381" width="192"><g><svg viewBox="0 0 192 70.78424015009381" height="70.78424015009381" width="192"><g><svg viewBox="0 0 192 70.78424015009381" height="70.78424015009381" width="192"><g><svg viewBox="0 0 192 70.78424015009381" height="70.78424015009381" width="192"><g id="SvgjsG4443"><svg viewBox="0 0 192 70.78424015009381" height="70.78424015009381" width="192" id="SvgjsSvg4442"><g><svg viewBox="0 0 192 70.78424015009381" height="70.78424015009381" width="192"><g transform="matrix(1,0,0,1,0,0)"><svg width="192" viewBox="-1.9500000476837158 -37.29999923706055 107.5999984741211 40.29999923706055" height="70.78424015009381" data-palette-color="url(#3b70027b-96da-42ae-942d-f526abd42bf3)"></svg></g></svg></g></svg></g></svg></g></svg></g></svg></g></svg></g></svg></g><defs></defs></svg></g></mask></svg></g></mask><linearGradient x1="0.054" x2="0.941" y1="0.5" y2="0.5" id="3b70027b-96da-42ae-942d-f526abd42bf3"><stop stop-color="#26282a" offset="0"></stop><stop stop-color="#9e9fa0" offset="0.498"></stop><stop stop-color="#26282a" offset="1"></stop></linearGradient><rect width="320.000732421875" height="360" fill="url(#3b70027b-96da-42ae-942d-f526abd42bf3)" mask="url(#b7dae218-fd6e-4e22-9e42-f23fdf86ffd0)" data-fill-palette-color="quaternary"></rect></svg><rect width="320" height="360" fill="none" stroke="none" visibility="hidden"></rect></g></svg></g></svg>